<svg id="Jellyfish1" xmlns="http://www.w3.org/2000/svg" width="186.61" height="172.42" viewBox="0 0 186.61 172.42"><defs><style>.cls-1{fill:#398791;}.cls-1,.cls-2,.cls-3,.cls-4,.cls-5{stroke:#000;stroke-miterlimit:10;}.cls-2{fill:#5cc4f0;}.cls-3{fill:#3dbaea;}.cls-4{fill:#116aaf;}.cls-5{fill:#e4b3ff;}</style></defs><path class="cls-1" d="M157.65,131.52c-.16,16.14-30.4,33.21-57.83,36.09-34.63,3.64-74.42-14.32-78.28-36.55-.17-1-1.38-8.58,2.72-15.44C31.84,102.91,52,102.15,63.7,101.71c3.27-.13,11.21.58,26.94,2,24.49,2.22,28.63,3,31.54,3.52,26.36,5.15,31.34,12.69,32.78,15.24A18.42,18.42,0,0,1,157.65,131.52Z"/><path class="cls-2" d="M108.33,165.08c-1.86,1.65-7.68,6.68-15.88,6.83-11.51.23-19.25-9.27-20.81-11.23-6.2-7.79-7-16.17-7.94-26.51-1.41-16,1.52-32.47,1.52-32.48l3.47-.42c13.17-1.6,27.94.39,27.94.39a167.87,167.87,0,0,1,24.47,5.43c.13,2.9.25,7.15.06,12.28C120.49,137.55,119.86,154.84,108.33,165.08Z"/><path class="cls-3" d="M179,111.9a51.77,51.77,0,0,1-4.37,9.18,74.85,74.85,0,0,1-6.57,8.76c-4.37,5.36-6.51,7.34-8.21,8.74-2.05,1.69-5.31,4.06-5.87,3.51s2.45-2.73,3.39-7.26a19.08,19.08,0,0,0-1.31-10.58c-.15-.34-.28-.61-.37-.8a19.05,19.05,0,0,0-2-3,18.54,18.54,0,0,0-2.29-2.31q-1.33-1-3-2a38.76,38.76,0,0,0-4.25-2.25,217.76,217.76,0,0,0-68.42-13.11c-1.24.08-3.11.22-5.39.43s-3.41.35-4.53.46a85.6,85.6,0,0,1-8.89.41,76.27,76.27,0,0,0-7.76.76,56.93,56.93,0,0,0-10.46,2.34A34.67,34.67,0,0,0,25.32,114a15.5,15.5,0,0,0-2.39,3.77,15.18,15.18,0,0,0-1.26,4.79,24.7,24.7,0,0,0-.41,3.72,23.71,23.71,0,0,0,.43,5.31,20.76,20.76,0,0,0,2.71,6.6c4.53,7.51,10.24,11.76,9.75,12.44-.38.53-4.57-1.28-9.19-4.48a58.91,58.91,0,0,1-19.62-24C-.44,108.83.35,96.88.83,90.75,3.68,54.34,32.39,12.32,70.21,3,85.3-.7,102,.77,103.07.87A102.39,102.39,0,0,1,131.7,7.76c8.26,3.33,41.44,16.71,51.51,48.5A63.4,63.4,0,0,1,186,78.42a107.8,107.8,0,0,1-7,33.48Z"/><path class="cls-4" d="M153,114.89a4.45,4.45,0,0,1-2.87.2c-1.53-.47-1.86-1.75-3.47-3a10.49,10.49,0,0,0-3.85-1.66,62.48,62.48,0,0,0-10.16-1.93s-1.34-.13-10.86-1.49-9.91-2.35-19.9-4c-1.36-.22-6.74-1.06-13.88-1.63a106.41,106.41,0,0,0-15.53-.52c-3.21.17-3.48.35-10.55.86q-4.39.32-8.67.55c-3.5.29-7.05.61-10.63,1-2.44.24-4.87.48-7.28.74a11.07,11.07,0,0,0-3.62,1c-3.1,1.51-3.66,3.7-6.32,4.57-.12,0-2.88.9-4.43-.13C17.23,107,19.27,92.82,27.31,83.4,32.66,77.13,42.52,70.79,47.37,74c1,.68,2.88,2.5,3,7.85A11.86,11.86,0,0,0,51,87.21c2.27,6,9.77,9.85,18.87,10,7.52.38,13.65.42,17.83.38,10.34-.08,17-.69,28.42,0,2.8.16,5.09.36,6.57.49,3.14.26,7.08,0,9.26-2.5.58-.67,1.08-2.15,2.08-5.11,1.71-5,2-7.25,4.08-9a7.42,7.42,0,0,1,2.2-1.25,9.37,9.37,0,0,1,1.86-.4,11.61,11.61,0,0,1,6,1.35c3.16,1.64,6.2,6.11,7.34,12.12a33.9,33.9,0,0,1,1.25,10.25C156.64,106.78,156.41,113.4,153,114.89Z"/><path class="cls-5" d="M123.72,45c-2.47-8.83-12.93-16.75-24.18-17.26-13.8-.63-27.34,9.94-27.7,18.42a4.3,4.3,0,0,0,.73,3.12c3.21,3.84,13-5,26.48-4.57,12.94.38,21.59,9,24.55,5.71C124.84,49,124.15,46.53,123.72,45Z"/><ellipse class="cls-5" cx="89.89" cy="66.29" rx="9.58" ry="5.57" transform="translate(-12.21 21) rotate(-12.49)"/><path class="cls-5" d="M27.4,30.45A46.31,46.31,0,0,0,21.48,38a1,1,0,0,0-.15.39c-.23,1.42,2.6,3,3.26,3.34,3.29,1.8,12.07,2.13,16.25-4.34,0,0,4.65-7.19-2.74-16.71a.71.71,0,0,0-.25-.2,7.09,7.09,0,0,0-.73.41A7.92,7.92,0,0,0,35.68,22c-3.21,3.22-4.81,4.82-5.64,5.7C29.7,28.08,28.73,29.14,27.4,30.45Z"/><path class="cls-5" d="M170,33a63.73,63.73,0,0,1,8.38,12,20.18,20.18,0,0,1-1.91,1.27,19.35,19.35,0,0,1-7.29,2.48c-3.72.39-10.48-.69-12.87-5.16-3.22-6,3.1-15.25,5.22-18.31v0A79.43,79.43,0,0,1,170,33Z"/><circle class="cls-5" cx="29.49" cy="132.1" r="3.45"/><ellipse class="cls-5" cx="42.86" cy="142.97" rx="3.86" ry="3.27" transform="translate(-29.9 12.65) rotate(-12.49)"/><ellipse class="cls-5" cx="56.1" cy="152.2" rx="4.11" ry="3.17" transform="translate(-96.49 207.23) rotate(-89.6)"/><ellipse class="cls-5" cx="125.63" cy="152.81" rx="3.99" ry="3.17" transform="translate(-28.05 277.37) rotate(-89.6)"/><circle class="cls-5" cx="138.82" cy="143.64" r="2.82"/><ellipse class="cls-5" cx="149.32" cy="132.94" rx="3.57" ry="2.48" transform="translate(15.34 281.33) rotate(-89.6)"/></svg>
