<svg xmlns="http://www.w3.org/2000/svg" width="209.64" height="193.34" viewBox="0 0 209.64 193.34"><defs><style>.cls-1{fill:#398791;}.cls-1,.cls-2,.cls-3,.cls-4,.cls-5{stroke:#000;stroke-miterlimit:10;}.cls-2{fill:#5cc4f0;}.cls-3{fill:#3dbaea;}.cls-4{fill:#116aaf;}.cls-5{fill:#e4b3ff;}</style></defs><g id="Jellyfish2"><path class="cls-1" d="M176.33,148.52c-.43,18.11-34.62,36.8-65.45,39.61C72,191.68,27.6,170.91,23.61,145.9c-.18-1.1-1.42-9.64,3.28-17.28,8.71-14.14,31.32-14.69,44.48-15,3.67-.09,12.56.83,30.2,2.67,27.44,2.87,32.08,3.76,35.34,4.44,29.5,6.19,35,14.72,36.55,17.6A20.84,20.84,0,0,1,176.33,148.52Z"/><path class="cls-2" d="M120.47,185.42c-2.11,1.82-8.71,7.37-17.93,7.42-12.91.07-21.45-10.7-23.17-12.93-6.84-8.83-7.64-18.25-8.5-29.86-1.33-18,2.2-36.42,2.2-36.43l3.9-.42c14.81-1.59,31.35.88,31.35.88a188.81,188.81,0,0,1,27.37,6.46c.11,3.25.17,8-.12,13.78C134.54,154.72,133.57,174.11,120.47,185.42Z"/><path class="cls-3" d="M200.6,126.83a57.88,57.88,0,0,1-5,10.24,83.24,83.24,0,0,1-7.5,9.72c-5,6-7.41,8.14-9.34,9.68-2.33,1.87-6,4.48-6.65,3.85s2.79-3,3.92-8.09c1.24-5.58-1-11.08-1.31-11.9l-.4-.9A20.57,20.57,0,0,0,172,136a20.31,20.31,0,0,0-2.53-2.64c-1-.76-2.09-1.53-3.3-2.3a43.08,43.08,0,0,0-4.73-2.58A244.46,244.46,0,0,0,84.89,112.7c-1.39.08-3.49.2-6.06.4s-3.82.34-5.08.45a94.85,94.85,0,0,1-10,.32c-2.19.08-5.18.26-8.71.74a63.07,63.07,0,0,0-11.78,2.47,38.69,38.69,0,0,0-15.16,9.76A17.51,17.51,0,0,0,25.37,131a17.08,17.08,0,0,0-1.48,5.36,26.71,26.71,0,0,0-.12,10.14A23.54,23.54,0,0,0,26.7,154c5,8.5,11.31,13.35,10.76,14.1-.44.6-5.12-1.49-10.25-5.16A66.11,66.11,0,0,1,5.57,135.66C-.72,120.62.36,107.22,1,100.35,4.75,59.54,37.62,12.83,80.2,3c17-3.94,35.67-2,36.9-1.91a115.79,115.79,0,0,1,32,8.17c9.22,3.87,46.25,19.39,57.06,55.22A71.39,71.39,0,0,1,209,89.37a121.91,121.91,0,0,1-3.59,22.72A120,120,0,0,1,200.6,126.83Z"/><path class="cls-4" d="M171.34,129.78a4.84,4.84,0,0,1-3.21.19c-1.72-.56-2.07-2-3.85-3.42a11.76,11.76,0,0,0-4.3-1.92,67.74,67.74,0,0,0-11.37-2.32s-1.5-.18-12.16-1.85-11.09-2.79-22.27-4.73c-1.52-.27-7.55-1.3-15.55-2a117.46,117.46,0,0,0-17.42-.82c-3.6.14-3.91.34-11.85.8-3.29.19-6.53.35-9.74.48-3.93.27-7.92.57-11.94.91-2.75.22-5.47.46-8.18.71a12.36,12.36,0,0,0-4.08,1.09c-3.5,1.63-4.16,4.09-7.16,5-.14,0-3.24,1-5-.21-4.15-2.83-1.64-18.7,7.52-29.15,6.1-7,17.27-13.91,22.66-10.2,1.13.78,3.19,2.85,3.22,8.85a13.42,13.42,0,0,0,.68,6c2.45,6.8,10.8,11.21,21,11.53,8.44.54,15.31.68,20,.7,11.61.06,19.08-.51,31.89.41,3.15.23,5.72.48,7.37.66,3.53.33,7.94.14,10.43-2.66.66-.74,1.25-2.4,2.42-5.71,2-5.64,2.34-8.1,4.71-10a8.42,8.42,0,0,1,2.48-1.37,10.34,10.34,0,0,1,2.1-.41,13,13,0,0,1,6.68,1.6c3.51,1.89,6.86,7,8,13.72a37.81,37.81,0,0,1,1.24,11.52C175.58,120.75,175.22,128.17,171.34,129.78Z"/><path class="cls-5" d="M139.59,50.87c-2.63-9.95-14.25-19-26.87-19.74-15.47-.92-30.83,10.73-31.35,20.24a4.83,4.83,0,0,0,.76,3.51c3.55,4.36,14.65-5.36,29.78-4.71,14.52.61,24.1,10.4,27.46,6.78C140.79,55.42,140.06,52.63,139.59,50.87Z"/><ellipse class="cls-5" cx="101.3" cy="74.28" rx="10.75" ry="6.25" transform="translate(-12.96 22.09) rotate(-11.7)"/><path class="cls-5" d="M31.74,33.1A51.74,51.74,0,0,0,25,41.44a1.45,1.45,0,0,0-.17.44c-.28,1.59,2.87,3.38,3.61,3.8,3.66,2.07,13.51,2.57,18.3-4.62,0,0,5.32-8-2.82-18.8a.85.85,0,0,0-.27-.22,8,8,0,0,0-.83.44,9.61,9.61,0,0,0-1.63,1.28c-3.65,3.56-5.48,5.35-6.42,6.31C34.35,30.48,33.25,31.65,31.74,33.1Z"/><path class="cls-5" d="M191.67,38.19a71.63,71.63,0,0,1,9.23,13.58,21.94,21.94,0,0,1-2.17,1.41,21.59,21.59,0,0,1-8.22,2.66c-4.18.38-11.75-.93-14.36-6-3.52-6.82,3.71-17.07,6.14-20.47l0,0A88.42,88.42,0,0,1,191.67,38.19Z"/><circle class="cls-5" cx="32.51" cy="147.19" r="3.87"/><ellipse class="cls-5" cx="47.34" cy="159.6" rx="4.34" ry="3.67" transform="translate(-31.38 12.92) rotate(-11.7)"/><ellipse class="cls-5" cx="62.06" cy="170.16" rx="4.61" ry="3.56" transform="translate(-109.35 228.67) rotate(-88.81)"/><ellipse class="cls-5" cx="140.07" cy="171.91" rx="4.47" ry="3.56" transform="translate(-34.71 308.39) rotate(-88.81)"/><circle class="cls-5" cx="155.01" cy="161.83" r="3.17"/><ellipse class="cls-5" cx="166.96" cy="149.98" rx="4" ry="2.78" transform="translate(13.54 313.8) rotate(-88.81)"/></g></svg>
