<svg id="Jellyfish1" xmlns="http://www.w3.org/2000/svg" width="324.69" height="277.09" viewBox="0 0 324.69 277.09"><defs><style>.cls-1{fill:#204c52;}.cls-1,.cls-2,.cls-3,.cls-4{stroke:#000;stroke-miterlimit:10;}.cls-2{fill:#5cc4f0;}.cls-3{fill:#de7bbc;}.cls-4{fill:#0595e1;}</style></defs><path class="cls-1" d="M295.91,190.13C284.3,238,198.38,239.44,167,241.44S40.85,242.72,32,195.93,121.73,118.49,160.34,115,307.52,142.29,295.91,190.13Z"/><path class="cls-2" d="M176.58,276.5c-10.72.16-2,.05-2,.05-17.4-.11-29.17-4.63-36.41-12.65-10.82-12-9.32-32-8.29-42.49,1.17-11.77,4.17-15.27,5.68-33.68a112.65,112.65,0,0,0,.17-20.23c-.52-5.64-1.2-7.82-3.45-20-2.65-14.29-4-21.48-2.83-23.3,3.71-6,15.06-7,37.76-8.83,1.68-.14,3.09-.24,4.13-.31a162.2,162.2,0,0,1,23.09.33c16.45,1.42,19,4.23,19.78,6.13s-.11,3.26-.84,8.57c-.52,3.7-.37,7.44-.06,14.77.72,16.87,1.08,25.31,1.23,27.34,1.09,13.79,1.63,20.69,2.91,26.18a199.88,199.88,0,0,1,4.59,24.53c.12,1,.21,2,.29,3.21C223.24,239.57,232.53,275.65,176.58,276.5Z"/><path class="cls-3" d="M277.13,190.08a3,3,0,0,1-.77,2.13,2.1,2.1,0,0,1-1.79.66c-1.24-.28-1.7-2.47-1.92-3.49-1.07-5-2.65-9.83-3.8-14.79-.38-1.65-.13-.37-1.85-6.81-2.11-7.89-3-11.8-5.52-16.83-.38-.75-.7-1.35-.9-1.7-.74-1.27-1.91-3.24-3.39-5.65-3.51-5.71-5.09-7.89-4.47-8.54.4-.41,1.43.27,4.59,1.27a47.52,47.52,0,0,0,4.66,1.23c.57,1.08,1.33,2.56,2.17,4.36a44.19,44.19,0,0,1,4.48,11.52c.92,3.88,1.85,6.94,3.71,13.07C272.33,166.51,277.35,183,277.13,190.08Z"/><path class="cls-3" d="M241.68,205.85a4.14,4.14,0,0,1-1.28,2.83,3.29,3.29,0,0,1-2.7.78c-1.88-.48-2.44-3.8-2.62-4.83A283.36,283.36,0,0,0,227.54,176c-2.52-7.56-6.25-14.69-8.93-22.2-.14-.37-.57-1.6-1.23-3.22-.74-1.86-1.3-3.08-1.74-4a23.43,23.43,0,0,1-1.73-3.68c-.11-.4-.21-.81-.21-.81s-.23-.94-.37-2a41.11,41.11,0,0,1-.27-5.35,43.09,43.09,0,0,1,.37-4.92c.43-3.27.65-4.91,1.23-5,.79-.13,1.43,2.44,4.4,8.65a80.4,80.4,0,0,1,3.53,7.6c.73,1.94,1.11,3.26,1.59,4.81h0c2.07,5.84,3.63,10.19,4,11.09,1,2.81,3.39,9.4,9,25.65C240.31,194.35,242,203.17,241.68,205.85Z"/><path class="cls-3" d="M261.35,195.72a3.64,3.64,0,0,1-1.05,2.67,3,3,0,0,1-2.43.83c-1.67-.35-2.29-3.08-2.58-4.36-1.44-6.2-3.56-12.26-5.11-18.46-.28-1.13-.3-1.16-.65-2.29-.41-1.32-1.8-6.09-1.83-6.22a147.08,147.08,0,0,0-7.2-18.42,129.47,129.47,0,0,0-6-11.75c-4.1-7.05-7.32-10.94-6.39-11.92.4-.42,1.32,0,6.92,2.09l6,2.27c.77,1.34,1.8,3.19,2.93,5.44a52.47,52.47,0,0,1,6,14.37c1.24,4.85,2.49,8.68,5,16.32C254.93,166.29,261.68,186.92,261.35,195.72Z"/><path class="cls-3" d="M114,212.9a4.18,4.18,0,0,0,1.89,2.6,3.68,3.68,0,0,0,3,.24c1.87-.87,1.81-4.32,1.81-5.4A283.29,283.29,0,0,1,123.05,180c1.18-8.12,3.72-16,5.09-24.13.07-.4.29-1.72.66-3.49.42-2,.77-3.35,1.06-4.34A20.8,20.8,0,0,0,131,144s0-.42.07-.87c.18-3.37-1.08-8.08-1.68-12.5-.46-3.31-.26-4.38-.74-4.49-1.42-.33-4.54,8.48-4.86,9.4a57.46,57.46,0,0,0-2.23,8.36c-.39,2.09-.53,3.5-.73,5.15h0c-1.06,6.28-1.85,11-2,12-.55,3-1.75,10.14-4.53,27.62C113.23,201.06,113.17,210.27,114,212.9Z"/><path class="cls-3" d="M76.63,206.28a3.75,3.75,0,0,0,1.68,2.11,2.45,2.45,0,0,0,2.58,0c1.52-.87,1.23-3.12,1.15-4.42-.39-6.35-.38-10.93-.63-17.65-.08-2.24-.1-4.33,0-8.26.19-4.8.43-14.32,2-19.77.23-.81.48-1.75.63-2.25,1-3,1.71-5.23,2.43-7.18,3.12-8.5,4-10.86,3.5-11.1-.09,0-.21,0-.32.06-1.85.94-3.77,1.74-5.59,2.73l-2.25,1.15c-1.27.65-2.32,1.17-3,1.52-.21.66-.53,1.65-.86,2.87-.4,1.51-.63,2.75-.86,3.76a80.44,80.44,0,0,0-2.28,14c-.13,3.18-.55,9.75-.67,16.06C74,185.78,74.12,199.56,76.63,206.28Z"/><path class="cls-3" d="M96.33,207.79a5.18,5.18,0,0,0,1.45,2.87c1.17.87,1.76,1,2.67.57,1.78-.78,1.68-3.65,1.75-5.12.32-7.15,1-14.25,1.33-21.16.07-1.26.13-1.65.22-2.77s.65-6.46.68-6.76c.77-7.08,3.14-15.52,4.72-21.08,1.38-4.82,3-10.57,4.58-13.26,3.25-5.68,3.9-8.58,6-13.85,0,0,.34-.06,0-.25-1.31-.67-4.84,1.08-6.7,1.83-.6.24-4.91,1.89-6,2.35-.67,2.06-.44,2-1.32,4.6-.23.69-.22.52-1.46,4.14-.72,2.1-3.68,10.09-4.53,16.43-.48,3.63-1.88,11.42-2.7,18.94C96.14,182.35,94.55,199.32,96.33,207.79Z"/><path class="cls-3" d="M53.6,202.85a3.07,3.07,0,0,0,1,1.76c.74.51,1.15.53,1.67.26,1-.52.94-2.26.94-3.27,0-4.88.23-8.37.36-13.53,0-1.71.12-3.31.4-6.29.33-3.65.9-10.89,2.14-14.91.18-.6.38-1.29.51-1.65.83-2.48,1.44-4.1,1.88-5.26a88.5,88.5,0,0,0,2.94-9.47s-1.95,1-4,2.17c-.23.13-.9.52-1.77,1.06q-1,.66-1.89,1.23c-.17.48-.41,1.2-.68,2.11-.33,1.11-.53,2-.72,2.79a68,68,0,0,0-2.09,10.43c-.23,2.42-.78,7.39-1.14,12.19C52.8,187,52.27,197.49,53.6,202.85Z"/><path class="cls-4" d="M324.19,134.92c-.07,3.13-.23,6.4-.5,9.78a173.59,173.59,0,0,1-2.46,18.39,157.25,157.25,0,0,1-18.54,41.15,83.14,83.14,0,0,1-22.12,20.19c-6.19,3.83-11.46,5.91-17.75,8.4-1.58.62-3.6,1.14-8.62,2.83-4.52,1.52-5.93,2-9.93,3.36-5.41,1.78-4.71,1.44-8,2.55-8.34,2.81-11.6,4.57-12.73,3.3-.46-.52.07-.81-.08-4.37-.1-2.24-.37-3.36.37-4.07.39-.36.8-.39,1.77-.54,1.4-.22,2.76-.68,4.15-.9,1.81-.28,13-5.5,40.86-19.5,4.31-2.65,13.86-9.1,19.41-18.65a22.58,22.58,0,0,0,3.31-9.37,21,21,0,0,0-1.81-10.82A47.76,47.76,0,0,0,286,163.31a50.51,50.51,0,0,0-7.6-9.52A93.59,93.59,0,0,0,257.12,138a141.06,141.06,0,0,0-31.69-13.1l-28.77-6.16A174.41,174.41,0,0,0,169,117.63a126.85,126.85,0,0,0-20.85,2.09,262.73,262.73,0,0,0-43.34,12,272,272,0,0,0-47.41,23.44,48.68,48.68,0,0,0-16.13,14.51c-1.76,2.51-7.84,11.18-8.18,21.89a50.76,50.76,0,0,0,.35,6.93l0,.2a28.52,28.52,0,0,0,4.3,11c4.87,7.35,12.74,12.2,12.75,12.21s11,5.74,20.51,9.42A109.9,109.9,0,0,0,91.32,237c16.46,3,37.83,1.79,38.18,4.08,0,.08,0,.4.12,1.17.13,1.09.26,2,.35,2.61.52,3.4.69,3.34.55,3.56-.67,1.09-3.2.26-11.47-.47l-.88-.07c-1.16-.07-2.61,0-9.71,0-11,0-20.94,0-21.93-.06-19.27-.22-38.58-11.16-40.73-12.4a92.64,92.64,0,0,1-31.45-29.89A90.47,90.47,0,0,1,2,174.8a151.33,151.33,0,0,1,.69-46.41A153.55,153.55,0,0,1,38.27,53.81c5-5.69,28.72-31.92,70-45.4,29-9.47,53-8.16,65.68-7.35,20.73,1.33,60.67,3.61,96.72,32.58,24.67,19.84,37.4,44,43.9,60.2l5,18.16c.83,3,1.61,6.1,2.32,9.41C323,126.19,323.69,130.71,324.19,134.92Z"/><path class="cls-3" d="M169,22.5c-18,2.12-31.11,13.35-30.17,31.28S154.53,85.17,172,83.08s29.29-16.94,29.09-35.26S187,20.37,169,22.5Zm-.47,55.08c-13.37,1.1-20.44-8.12-22.76-23.14s6-26.67,24.63-28.28,27.23,11.55,22.9,26.55S181.91,76.49,168.54,77.58Z"/><path class="cls-3" d="M89.93,46.61a6.6,6.6,0,0,0-1.28-1.13C80.55,40,62.19,52.17,52.47,62c-14.08,14.2-24.39,37.83-17.94,43.85,6.21,5.78,27.51-4.68,40.33-18.54C86.12,75.12,96.44,54.05,89.93,46.61ZM70.39,84.41c-10.32,11.4-26.82,21.89-31.43,18s2.58-21,11.8-32.5C62.23,55.54,81.16,44.8,85.84,49.05S81.58,72.07,70.39,84.41Z"/><path class="cls-3" d="M293.66,75.57c-.76-1.25-1.41-2.17-1.82-2.73-8.72-12-25-21.5-31.86-17.23-7.14,4.45-4.71,24.32,3.57,37.78,8.81,14.35,26.73,25.43,33.86,20.75S301.87,89,293.66,75.57Zm.94,33.32c-5.47,3.53-19.25-6-26.4-17.15s-10.05-27.87-4.56-31.34,19.49,6.38,26.63,17.93C297,89.25,300,105.4,294.6,108.89Z"/><ellipse class="cls-3" cx="21.62" cy="170.1" rx="3.92" ry="8.55" transform="translate(-112.66 63.47) rotate(-44.3)"/><ellipse class="cls-3" cx="65.12" cy="132.83" rx="3.92" ry="8.55" transform="translate(-40.95 29.71) rotate(-19.69)"/><ellipse class="cls-3" cx="126.79" cy="110.76" rx="3.92" ry="8.55" transform="translate(-18.11 25.04) rotate(-10.53)"/><ellipse class="cls-3" cx="208.02" cy="105.71" rx="8.55" ry="3.92" transform="translate(41.15 268.81) rotate(-71.28)"/><ellipse class="cls-3" cx="268.55" cy="127.99" rx="8.55" ry="3.92" transform="translate(-8.7 235.85) rotate(-46.74)"/><ellipse class="cls-3" cx="302.81" cy="173.83" rx="8.55" ry="3.92" transform="matrix(0.92, -0.39, 0.39, 0.92, -43.72, 131.1)"/><ellipse class="cls-3" cx="278.53" cy="202.76" rx="2.46" ry="3.41" transform="translate(-52.95 108.9) rotate(-20.24)"/><ellipse class="cls-3" cx="261.83" cy="210.1" rx="2.46" ry="3.41" transform="translate(-40.4 63.96) rotate(-12.94)"/><ellipse class="cls-3" cx="242.89" cy="218.31" rx="2.46" ry="3.41" transform="translate(-60.54 97.53) rotate(-20.24)"/><ellipse class="cls-3" cx="116.84" cy="230.23" rx="4.26" ry="3.28" transform="translate(-133.62 292.92) rotate(-77.15)"/><ellipse class="cls-3" cx="97.27" cy="227.98" rx="4.26" ry="3.28" transform="translate(-146.64 272.1) rotate(-77.15)"/><ellipse class="cls-3" cx="76.98" cy="223.35" rx="4.26" ry="3.28" transform="translate(-157.9 248.72) rotate(-77.15)"/><ellipse class="cls-3" cx="55.88" cy="216.93" rx="3" ry="2.58" transform="translate(-163.97 173.99) rotate(-64.5)"/></svg>
