<svg id="Jellyfish1" xmlns="http://www.w3.org/2000/svg" width="456.11" height="389.52" viewBox="0 0 456.11 389.52"><defs><style>.cls-1{fill:#204c52;}.cls-1,.cls-2,.cls-3,.cls-4{stroke:#000;stroke-miterlimit:10;}.cls-2{fill:#5cc4f0;}.cls-3{fill:#de7bbc;}.cls-4{fill:#0595e1;}</style></defs><path class="cls-1" d="M411.2,278.39c-20.43,65.94-140.82,60.47-184.93,60.53s-176.66-9.24-185-75.5S173.68,162.88,228,161.42,431.62,212.44,411.2,278.39Z"/><path class="cls-2" d="M236.62,388.83c-15-.71-2.77-.1-2.77-.1-24.34-1.68-40.43-9-49.85-20.9-14.1-17.74-10.25-45.64-7.89-60.19,2.67-16.37,7.17-21,10.9-46.64,2.13-14.68,2.14-23.38,2-28.3-.23-7.95-1-11-3.08-28.28-2.45-20.24-3.64-30.41-1.92-32.86,5.71-8.15,21.68-8.46,53.62-9.06,2.36-.05,4.35-.06,5.81-.06a227.88,227.88,0,0,1,32.29,2.47c22.9,3.43,26.17,7.57,27.15,10.31,1,2.94-.44,4.55-1.94,11.92-1,5.14-1.16,10.39-1.36,20.67-.48,23.68-.72,35.52-.67,38.37.31,19.4.46,29.1,1.78,36.9A280.38,280.38,0,0,1,305,317.81c.08,1.43.12,2.84.12,4.52C305.16,341.22,315,392.54,236.62,388.83Z"/><path class="cls-3" d="M384.91,276.66a4.26,4.26,0,0,1-1.26,2.92,3,3,0,0,1-2.57.77c-1.7-.51-2.15-3.6-2.37-5.05-1.07-7.06-2.85-14-4-21-.39-2.33-.15-.53-2-9.7-2.25-11.22-3.17-16.77-6.25-24-.46-1.08-.86-1.95-1.1-2.46-.93-1.83-2.4-4.7-4.26-8.2-4.41-8.3-6.43-11.49-5.51-12.34.6-.55,2,.5,6.31,2.18,2.71,1,5,1.73,6.42,2.13.7,1.55,1.64,3.69,2.66,6.28a61.86,61.86,0,0,1,5.25,16.52c1,5.51,2,9.88,4.07,18.61C380.27,243.25,385.84,266.83,384.91,276.66Z"/><path class="cls-3" d="M333.92,295.64a5.82,5.82,0,0,1-2,3.85,4.67,4.67,0,0,1-3.85.86c-2.59-.84-3.08-5.53-3.25-7-1.3-11.18-5.81-32.4-8-40.77-2.87-10.81-7.46-21.11-10.57-31.85-.15-.53-.66-2.29-1.43-4.62-.88-2.67-1.55-4.42-2.1-5.72a32.13,32.13,0,0,1-2.09-5.31c-.12-.56-.23-1.15-.23-1.15s-.24-1.33-.34-2.82a58.75,58.75,0,0,1,.09-7.52,60.18,60.18,0,0,1,.95-6.85c.89-4.54,1.34-6.81,2.17-6.9,1.1-.12,1.78,3.54,5.4,12.48,2,5,2.95,6.66,4.27,11,.85,2.77,1.26,4.66,1.8,6.87h0c2.4,8.35,4.2,14.57,4.59,15.87,1.21,4,3.93,13.45,10.41,36.68C333,279.42,334.58,291.91,333.92,295.64Z"/><path class="cls-3" d="M362.34,283.18a5.11,5.11,0,0,1-1.71,3.64,4.18,4.18,0,0,1-3.47.95c-2.31-.63-2.93-4.5-3.23-6.32-1.47-8.81-3.91-17.48-5.53-26.29-.3-1.61-.33-1.64-.72-3.26-.46-1.88-2-8.67-2-8.86a205.71,205.71,0,0,0-8.47-26.42,181.25,181.25,0,0,0-7.38-17c-5.13-10.23-9.3-15.94-7.91-17.24.6-.56,1.85.05,9.5,3.53,3.76,1.72,6.7,3.05,8.16,3.7,1,1.94,2.24,4.63,3.63,7.86a73.88,73.88,0,0,1,7.17,20.65c1.32,6.9,2.73,12.36,5.57,23.27C355.93,241.42,363.57,270.9,362.34,283.18Z"/><path class="cls-3" d="M154.6,294.34a5.9,5.9,0,0,0,2.41,3.8,5.1,5.1,0,0,0,4.15.59c2.69-1,2.92-5.87,3-7.39.69-11.52,4.14-33.54,6-42.25,2.36-11.26,6.6-22.13,9.22-33.34.13-.55.56-2.38,1.23-4.82.77-2.79,1.37-4.63,1.87-6a28.81,28.81,0,0,0,1.89-5.59s.1-.58.18-1.2c.54-4.71-.8-11.41-1.26-17.65-.35-4.67,0-6.15-.65-6.34-1.95-.59-7.08,11.46-7.62,12.72a80.05,80.05,0,0,0-3.85,11.51c-.73,2.9-1,4.85-1.48,7.15h0c-2,8.71-3.54,15.2-3.88,16.56-1,4.2-3.33,14-8.75,38.26C154.56,277.7,153.66,290.58,154.6,294.34Z"/><path class="cls-3" d="M102.88,281.81A5.23,5.23,0,0,0,105,284.9c1.61.84,2.49.83,3.61.27,2.21-1.09,2-4.25,2-6.09,0-8.92.42-15.32.66-24.76.08-3.13.23-6.07.79-11.55.68-6.7,1.86-20,4.48-27.49.39-1.12.83-2.41,1.09-3.1,1.59-4.16,2.85-7.18,4-9.84,5.12-11.63,6.49-14.86,5.88-15.23-.13-.08-.3,0-.45.06-2.68,1.15-5.43,2.1-8.07,3.33l-3.25,1.41c-1.84.8-3.35,1.44-4.36,1.87-.36.9-.88,2.26-1.45,3.94-.7,2.07-1.13,3.8-1.53,5.19-1,3.29-3.59,11.55-4.41,19.32-.47,4.45-1.63,13.59-2.36,22.41C101,252.88,99.94,272.18,102.88,281.81Z"/><path class="cls-3" d="M130.31,285.63a7.32,7.32,0,0,0,1.78,4.16c1.56,1.32,2.38,1.5,3.68,1,2.57-.94,2.69-5,2.91-7,1.07-10,2.57-19.87,3.71-29.5.21-1.76.32-2.3.55-3.86s1.48-9,1.55-9.4c1.68-9.83,5.74-21.44,8.45-29.08,2.35-6.64,5.17-14.54,7.57-18.17,5-7.66,6.21-11.67,9.57-18.86,0,0,.49-.05,0-.36-1.78-1-6.87,1.09-9.54,2-.86.28-7,2.22-8.64,2.77-1.12,2.82-.79,2.74-2.25,6.31-.39,1-.36.72-2.42,5.67-1.19,2.87-6,13.81-7.77,22.61-1,5-3.63,15.82-5.44,26.27C132.28,250,128.56,273.62,130.31,285.63Z"/><path class="cls-3" d="M70.94,275a4.39,4.39,0,0,0,1.25,2.56c1,.78,1.56.84,2.31.51,1.48-.64,1.51-3.09,1.6-4.49.46-6.84,1.05-11.7,1.69-18.91.21-2.39.46-4.62,1.1-8.77.79-5.08,2.23-15.16,4.3-20.68.31-.82.66-1.77.86-2.27,1.38-3.39,2.38-5.61,3.1-7.2a124.66,124.66,0,0,0,4.95-13s-2.82,1.19-5.81,2.68c-.33.17-1.31.66-2.56,1.34-1,.55-2,1.07-2.76,1.54-.28.66-.69,1.66-1.14,2.9-.55,1.53-.92,2.81-1.25,3.84a95.09,95.09,0,0,0-3.84,14.42c-.53,3.37-1.74,10.27-2.66,17C71.22,252.68,69.54,267.36,70.94,275Z"/><path class="cls-4" d="M455.61,203.58c-.38,4.38-.89,8.94-1.56,13.65A244.75,244.75,0,0,1,449,242.75a220.45,220.45,0,0,1-29.55,56A116.44,116.44,0,0,1,386.73,325c-9,4.83-16.57,7.28-25.58,10.2-2.26.74-5.14,1.3-12.32,3.22-6.46,1.72-8.47,2.33-14.18,3.82-7.73,2-6.73,1.61-11.44,2.88-11.92,3.21-16.63,5.39-18.11,3.5-.6-.76.18-1.12.27-6.12.05-3.14-.22-4.74.88-5.66.57-.48,1.16-.47,2.52-.6,2-.19,3.92-.71,5.9-.9,2.54-.23,18.72-6.56,58.88-23.71,6.27-3.34,20.2-11.53,28.8-24.42,4-6,5.06-10.36,5.46-12.82a29.41,29.41,0,0,0-1.59-15.3A67.56,67.56,0,0,0,399.6,240a71.85,71.85,0,0,0-9.8-14c-6.32-7.27-14.93-15.28-28.33-24a198,198,0,0,0-43.21-21.11l-39.72-11.14a246.3,246.3,0,0,0-38.67-3.92,178.8,178.8,0,0,0-29.37,1.11,368.49,368.49,0,0,0-61.7,13,381.56,381.56,0,0,0-68.41,28.66,68.41,68.41,0,0,0-23.85,18.89c-2.68,3.36-11.94,15-13.36,29.93a72.5,72.5,0,0,0-.12,9.73s0,.15,0,.27a40.16,40.16,0,0,0,5.07,15.71c6.17,10.72,16.77,18.19,16.78,18.2s14.94,9,27.87,15a154.23,154.23,0,0,0,27.95,9.9c22.78,5.57,52.8,5.82,53.09,9.05,0,.11,0,.56.07,1.64.07,1.55.17,2.79.26,3.7.43,4.79.66,4.73.45,5-1,1.46-4.51.07-16-1.66l-1.22-.18c-1.62-.2-3.66-.27-13.59-.86-15.36-.91-29.32-1.91-30.69-2-27-2-53-19-55.93-20.91a130,130,0,0,1-41.4-44.59A126.86,126.86,0,0,1,1.12,231.21a212.44,212.44,0,0,1,5-64.89A215.31,215.31,0,0,1,62.52,65c7.48-7.53,43-42.16,102-57.4C206-3.08,239.44.85,257.06,3.09,286,6.76,341.67,13.45,389.59,57.15c32.79,29.92,48.5,64.84,56.17,88.09q2.73,12.93,5.47,25.86c.9,4.21,1.72,8.67,2.42,13.38C454.65,191.25,455.27,197.64,455.61,203.58Z"/><path class="cls-3" d="M248.24,32.65c-25.34,1.4-44.7,16-45,41.15s19.22,45.31,43.79,43.91,42.48-21.15,43.8-46.81S273.58,31.26,248.24,32.65Zm-5.47,77.06c-18.81.37-27.9-13.16-29.82-34.38s10.77-36.8,36.94-37.42S287,56.46,279.62,77.06,261.58,109.35,242.77,109.71Z"/><path class="cls-3" d="M135.45,59.48a9.27,9.27,0,0,0-1.69-1.69c-10.85-8.42-37.61,7.05-52.08,19.93-20.94,18.64-37.45,50.81-28.94,59.8,8.18,8.64,38.91-4.14,58.06-22.41C127.63,99.05,143.92,70.47,135.45,59.48Zm-30.64,51.21c-15.46,15-39.46,28.28-45.57,22.39-6-5.73,5.45-29.15,19.36-44.46,17.31-19.05,44.73-32.43,50.92-26.07S121.54,94.39,104.81,110.69Z"/><path class="cls-3" d="M418.06,117.84c-.95-1.81-1.78-3.16-2.3-4C404.61,96.24,382.62,81.59,372.68,87c-10.38,5.6-8.73,33.62,1.68,53.19,11.09,20.85,35.2,37.93,45.58,32C430.16,166.31,428.38,137.41,418.06,117.84Zm-1.6,46.72c-8,4.46-26.41-10.06-35.45-26.31S369.39,98.35,377.38,94s26.72,10.65,35.71,27.43C421.58,137.28,424.35,160.14,416.46,164.56Z"/><ellipse class="cls-3" cx="29.05" cy="226.35" rx="5.5" ry="11.99" transform="translate(-140.66 73.77) rotate(-40.73)"/><ellipse class="cls-3" cx="93.19" cy="177.99" rx="5.5" ry="11.99" transform="translate(-45.75 32.86) rotate(-16.12)"/><ellipse class="cls-3" cx="181.43" cy="152.49" rx="5.5" ry="11.99" transform="translate(-17.13 23.09) rotate(-6.95)"/><ellipse class="cls-3" cx="295.57" cy="152.54" rx="11.99" ry="5.5" transform="translate(42.31 368.16) rotate(-67.71)"/><ellipse class="cls-3" cx="378.34" cy="189.01" rx="11.99" ry="5.5" transform="translate(-26.92 309.96) rotate(-43.16)"/><ellipse class="cls-3" cx="422.28" cy="256.17" rx="11.99" ry="5.5" transform="translate(-60.85 153.57) rotate(-19.25)"/><ellipse class="cls-3" cx="385.77" cy="294.54" rx="3.45" ry="4.79" transform="translate(-68.27 123.02) rotate(-16.67)"/><ellipse class="cls-3" cx="361.75" cy="303.35" rx="3.45" ry="4.79" transform="translate(-44.53 62.89) rotate(-9.36)"/><ellipse class="cls-3" cx="334.52" cy="313.19" rx="3.45" ry="4.79" transform="translate(-75.77 109.11) rotate(-16.67)"/><ellipse class="cls-3" cx="157.05" cy="318.84" rx="5.97" ry="4.59" transform="translate(-193.19 379.29) rotate(-73.57)"/><ellipse class="cls-3" cx="129.87" cy="313.98" rx="5.97" ry="4.59" transform="translate(-208.03 349.74) rotate(-73.57)"/><ellipse class="cls-3" cx="101.87" cy="305.73" rx="5.97" ry="4.59" transform="translate(-220.18 316.97) rotate(-73.57)"/><ellipse class="cls-3" cx="72.91" cy="294.89" rx="4.2" ry="3.62" transform="translate(-220.26 215.31) rotate(-60.93)"/></svg>
