<svg id="Jellyfish1" xmlns="http://www.w3.org/2000/svg" width="151.03" height="139.73" viewBox="0 0 151.03 139.73"><defs><style>.cls-1{fill:#398791;}.cls-1,.cls-2,.cls-3,.cls-4,.cls-5{stroke:#000;stroke-miterlimit:10;}.cls-2{fill:#5cc4f0;}.cls-3{fill:#3dbaea;}.cls-4{fill:#116aaf;}.cls-5{fill:#e4b3ff;}</style></defs><path class="cls-1" d="M127.92,106.06c0,13.06-24.35,27.1-46.53,29.63-28,3.21-60.33-11-63.62-29a19.45,19.45,0,0,1,2.09-12.51c6-10.34,22.33-11.11,31.82-11.55,2.64-.13,9.07.39,21.81,1.43C93.32,85.67,96.68,86.23,99,86.67c21.37,4,25.46,10,26.64,12.09A15,15,0,0,1,127.92,106.06Z"/><path class="cls-2" d="M88.26,133.58c-1.49,1.35-6.16,5.46-12.8,5.65-9.31.26-15.65-7.36-16.93-8.94-5.07-6.26-5.8-13-6.62-21.39a115.61,115.61,0,0,1,1-26.3l2.8-.36c10.65-1.39,22.62.11,22.62.11a136.34,136.34,0,0,1,19.84,4.2c.13,2.35.26,5.79.14,9.94C97.9,111.21,97.51,125.21,88.26,133.58Z"/><path class="cls-3" d="M145.06,90a41.41,41.41,0,0,1-3.47,7.46,60,60,0,0,1-5.25,7.14,46.61,46.61,0,0,1-6.57,7.13c-1.65,1.38-4.28,3.32-4.74,2.88s2-2.22,2.7-5.9a15.55,15.55,0,0,0-1.14-8.55c-.12-.27-.23-.49-.31-.64a14.7,14.7,0,0,0-1.66-2.44,15.48,15.48,0,0,0-1.87-1.86c-.73-.53-1.53-1.07-2.42-1.6a32,32,0,0,0-3.45-1.79,176.16,176.16,0,0,0-55.47-10.1c-1,.07-2.52.2-4.36.38l-3.67.41a70.37,70.37,0,0,1-7.19.4c-1.57.09-3.73.27-6.27.67a45.58,45.58,0,0,0-8.45,2,27.89,27.89,0,0,0-10.76,7.29,12.22,12.22,0,0,0-1.91,3.06,12.39,12.39,0,0,0-1,3.89,19.85,19.85,0,0,0-.31,3,18.45,18.45,0,0,0,.39,4.3,16.76,16.76,0,0,0,2.24,5.32c3.72,6.05,8.37,9.44,8,10s-3.72-1-7.48-3.56A47.53,47.53,0,0,1,4.6,99.6C-.18,88.87.37,79.19.72,74.23c2-29.49,25-63.7,55.49-71.51C68.4-.4,81.89.66,82.78.73A83.72,83.72,0,0,1,106,6.09c6.71,2.64,33.66,13.22,42.05,38.87a51.13,51.13,0,0,1,2.44,17.91A87,87,0,0,1,145.06,90Z"/><path class="cls-4" d="M124,92.63a3.56,3.56,0,0,1-2.31.19c-1.24-.38-1.52-1.4-2.83-2.4a8.28,8.28,0,0,0-3.13-1.32,49.25,49.25,0,0,0-8.24-1.48s-1.08-.1-8.79-1.13-8-1.83-16.14-3c-1.1-.17-5.46-.81-11.25-1.22a85.37,85.37,0,0,0-12.56-.3c-2.6.16-2.82.31-8.54.77q-3.54.28-7,.51c-2.83.26-5.7.54-8.59.85l-5.89.65a8.72,8.72,0,0,0-2.92.85c-2.5,1.24-2.93,3-5.08,3.74-.1,0-2.32.75-3.59-.07-3-2-1.49-13.45,4.95-21.14C26.37,63,34.3,57.77,38.25,60.35c.83.55,2.35,2,2.47,6.33A9.49,9.49,0,0,0,41.31,71c1.88,4.86,8,7.9,15.34,8,6.09.25,11.05.24,14.43.18,8.37-.15,13.75-.69,23-.23,2.28.11,4.13.25,5.33.35,2.55.18,5.73,0,7.48-2.09.46-.55.85-1.75,1.64-4.16,1.34-4.1,1.56-5.88,3.23-7.28a6,6,0,0,1,1.77-1,7,7,0,0,1,1.5-.34,9.4,9.4,0,0,1,4.85,1c2.56,1.31,5.06,4.9,6,9.76A27.54,27.54,0,0,1,127,83.45C126.92,86,126.78,91.4,124,92.63Z"/><path class="cls-5" d="M99.82,36.26c-2.06-7.13-10.59-13.46-19.7-13.79C69,22.07,58.07,30.72,57.85,37.58a3.56,3.56,0,0,0,.61,2.53c2.63,3.08,10.47-4.11,21.39-3.9,10.48.21,17.55,7.11,19.91,4.44C100.76,39.52,100.18,37.53,99.82,36.26Z"/><ellipse class="cls-5" cx="72.6" cy="53.77" rx="7.75" ry="4.51" transform="translate(-10.24 17.73) rotate(-13.01)"/><path class="cls-5" d="M21.77,25.24A37.46,37.46,0,0,0,17,31.36a.92.92,0,0,0-.11.32c-.18,1.15,2.12,2.38,2.66,2.68,2.67,1.43,9.78,1.63,13.11-3.64,0,0,3.71-5.85-2.34-13.5a.62.62,0,0,0-.2-.16,6.68,6.68,0,0,0-.58.34,6.16,6.16,0,0,0-1.16,1C25.83,21,24.55,22.29,23.89,23,23.61,23.3,22.84,24.17,21.77,25.24Z"/><path class="cls-5" d="M137.16,26.26A51.74,51.74,0,0,1,144,35.9,14,14,0,0,1,142.49,37a15.53,15.53,0,0,1-5.88,2c-3,.35-8.48-.48-10.45-4.07-2.65-4.86,2.4-12.37,4.09-14.86v0A63.66,63.66,0,0,1,137.16,26.26Z"/><circle class="cls-5" cx="24.22" cy="107.48" r="2.79"/><ellipse class="cls-5" cx="35.11" cy="116.17" rx="3.13" ry="2.65" transform="translate(-25.26 10.89) rotate(-13.01)"/><ellipse class="cls-5" cx="45.89" cy="123.54" rx="2.57" ry="3.33" transform="translate(-0.27 0.1) rotate(-0.12)"/><ellipse class="cls-5" cx="102.17" cy="123.52" rx="2.57" ry="3.23" transform="translate(-0.27 0.22) rotate(-0.12)"/><circle class="cls-5" cx="112.77" cy="116" r="2.28"/><ellipse class="cls-5" cx="121.19" cy="107.27" rx="2" ry="2.89" transform="translate(-0.23 0.26) rotate(-0.12)"/></svg>
