<svg id="Jellyfish1" xmlns="http://www.w3.org/2000/svg" width="266.9" height="228.04" viewBox="0 0 266.9 228.04"><defs><style>.cls-1{fill:#204c52;}.cls-1,.cls-2,.cls-3,.cls-4{stroke:#000;stroke-miterlimit:10;}.cls-2{fill:#5cc4f0;}.cls-3{fill:#de7bbc;}.cls-4{fill:#0595e1;}</style></defs><path class="cls-1" d="M240.18,163.52C228,202,157.7,198.34,131.94,198.21s-103.17-6-107.78-44.78,77.7-58.24,109.44-58.9S252.35,125.07,240.18,163.52Z"/><path class="cls-2" d="M137.8,227.4c-8.77-.47-1.62-.07-1.62-.07-14.21-1.07-23.58-5.43-29-12.39-8.18-10.41-5.83-26.7-4.39-35.18,1.61-9.56,4.26-12.25,6.53-27.21A92,92,0,0,0,110.55,136c-.1-4.64-.54-6.45-1.69-16.53-1.36-11.83-2-17.77-1-19.2,3.36-4.74,12.69-4.86,31.35-5.1h3.4a133.69,133.69,0,0,1,18.85,1.56c13.36,2.09,15.26,4.52,15.82,6.13s-.27,2.65-1.17,6.95c-.63,3-.72,6.06-.88,12.07-.36,13.83-.54,20.75-.53,22.41.11,11.33.17,17,.91,21.56A163.47,163.47,0,0,1,178,186.17c0,.83.06,1.66.06,2.64C178,199.84,183.58,229.85,137.8,227.4Z"/><path class="cls-3" d="M224.83,162.42a2.47,2.47,0,0,1-.75,1.7,1.72,1.72,0,0,1-1.5.44c-1-.3-1.25-2.11-1.37-3-.59-4.13-1.61-8.18-2.27-12.3-.22-1.37-.09-.31-1.13-5.67-1.28-6.57-1.8-9.81-3.57-14.07-.27-.63-.5-1.14-.64-1.44-.53-1.07-1.38-2.75-2.45-4.8-2.55-4.87-3.72-6.74-3.18-7.23.35-.32,1.16.3,3.68,1.29a38.64,38.64,0,0,0,3.74,1.27c.41.91,1,2.16,1.53,3.68a35.73,35.73,0,0,1,3,9.67c.54,3.22,1.13,5.78,2.31,10.89C222.24,142.89,225.41,156.68,224.83,162.42Z"/><path class="cls-3" d="M195,173.32a3.4,3.4,0,0,1-1.2,2.24,2.72,2.72,0,0,1-2.25.49c-1.51-.5-1.78-3.24-1.87-4.1a233.46,233.46,0,0,0-4.55-23.84c-1.63-6.33-4.28-12.36-6.06-18.65-.08-.31-.37-1.34-.81-2.7-.51-1.57-.9-2.59-1.21-3.35a19.07,19.07,0,0,1-1.2-3.11c-.07-.33-.13-.68-.13-.68a15.2,15.2,0,0,1-.19-1.65,33.64,33.64,0,0,1,.08-4.38,34.25,34.25,0,0,1,.58-4c.54-2.65.81-4,1.29-4,.65-.06,1,2.08,3.11,7.32a67.72,67.72,0,0,1,2.46,6.41c.48,1.62.72,2.73,1,4h0c1.37,4.88,2.4,8.53,2.62,9.29.7,2.35,2.25,7.87,6,21.46C194.5,163.84,195.37,171.14,195,173.32Z"/><path class="cls-3" d="M211.62,166.15a3,3,0,0,1-1,2.12,2.47,2.47,0,0,1-2,.54c-1.35-.38-1.7-2.64-1.87-3.7-.82-5.16-2.22-10.23-3.13-15.38-.17-.94-.19-1-.41-1.91-.26-1.1-1.12-5.07-1.15-5.18a120.8,120.8,0,0,0-4.84-15.47c-1.14-3-2.3-6-4.26-9.94-3-6-5.37-9.35-4.55-10.1.35-.32,1.07,0,5.53,2.1,2.19,1,3.91,1.8,4.75,2.19.56,1.14,1.3,2.71,2.1,4.61a43.19,43.19,0,0,1,4.11,12.09c.75,4,1.55,7.22,3.17,13.61C208,141.73,212.38,159,211.62,166.15Z"/><path class="cls-3" d="M90.23,171.91a3.41,3.41,0,0,0,1.4,2.22,3,3,0,0,0,2.42.37c1.57-.6,1.72-3.42,1.78-4.31a228.73,228.73,0,0,1,3.65-24.66c1.42-6.57,3.93-12.9,5.51-19.44.08-.32.33-1.39.73-2.81.46-1.63.82-2.7,1.12-3.5a16.91,16.91,0,0,0,1.12-3.25s.06-.34.11-.7c.33-2.75-.43-6.67-.67-10.32-.19-2.73,0-3.59-.36-3.71-1.13-.34-4.18,6.68-4.49,7.41a46.5,46.5,0,0,0-2.3,6.71c-.43,1.69-.63,2.83-.88,4.17h0c-1.21,5.08-2.12,8.87-2.32,9.66-.62,2.45-2,8.19-5.26,22.31C90.26,162.19,89.7,169.71,90.23,171.91Z"/><path class="cls-3" d="M60.06,164.4a3.05,3.05,0,0,0,1.26,1.81,2,2,0,0,0,2.1.18c1.3-.63,1.19-2.48,1.19-3.56,0-5.21.3-8.94.48-14.46.06-1.83.16-3.54.5-6.74.42-3.92,1.16-11.68,2.72-16,.23-.65.49-1.4.65-1.8.94-2.43,1.69-4.18,2.38-5.74,3-6.77,3.85-8.65,3.49-8.87-.08,0-.17,0-.26,0-1.57.66-3.18,1.21-4.73,1.92l-1.9.81L65.39,113c-.22.52-.53,1.31-.87,2.3-.41,1.2-.67,2.21-.91,3A65.47,65.47,0,0,0,61,129.6c-.29,2.6-1,7.94-1.45,13.08C59.08,147.49,58.38,158.76,60.06,164.4Z"/><path class="cls-3" d="M76.08,166.73a4.2,4.2,0,0,0,1,2.44c.9.77,1.38.88,2.15.61,1.5-.54,1.58-2.89,1.72-4.09.66-5.82,1.57-11.59,2.27-17.22.13-1,.2-1.34.34-2.25s.9-5.24.94-5.48c1-5.74,3.43-12.51,5-17,1.4-3.87,3.08-8.48,4.49-10.59,3-4.45,3.67-6.79,5.66-11,0,0,.28,0,0-.21-1-.62-4,.61-5.58,1.12-.51.16-4.12,1.27-5.06,1.59-.67,1.64-.47,1.59-1.34,3.68-.23.55-.21.41-1.43,3.3-.71,1.67-3.57,8-4.62,13.18-.6,2.94-2.18,9.22-3.28,15.32C77.35,145.93,75.1,159.71,76.08,166.73Z"/><path class="cls-3" d="M41.43,160.3a2.56,2.56,0,0,0,.72,1.49c.58.46.91.5,1.35.31.87-.37.89-1.8,1-2.62.29-4,.66-6.83,1.06-11,.13-1.39.28-2.7.67-5.12.48-3,1.36-8.85,2.59-12.06.18-.48.39-1,.51-1.33.82-2,1.41-3.26,1.84-4.19a73.79,73.79,0,0,0,2.93-7.57s-1.65.69-3.4,1.55c-.19.09-.76.38-1.5.77l-1.62.89c-.16.38-.41,1-.67,1.69-.33.89-.55,1.64-.75,2.24a55.84,55.84,0,0,0-2.29,8.41c-.33,2-1.06,6-1.62,9.9C41.67,147.27,40.64,155.84,41.43,160.3Z"/><path class="cls-4" d="M266.39,120c-.23,2.55-.54,5.21-1,8a141.32,141.32,0,0,1-3,14.89,129,129,0,0,1-17.46,32.59,68.1,68.1,0,0,1-19.22,15.26,83.51,83.51,0,0,1-15,5.86c-1.33.42-3,.74-7.21,1.84-3.78,1-5,1.33-8.3,2.18-4.52,1.15-3.93.91-6.69,1.64-7,1.83-9.74,3.08-10.59,2-.35-.45.1-.66.17-3.58,0-1.83-.11-2.77.54-3.3.34-.28.68-.27,1.48-.34,1.15-.1,2.29-.4,3.44-.5,1.49-.13,11-3.77,34.49-13.64,3.67-1.93,11.84-6.66,16.91-14.16a18.47,18.47,0,0,0,3.23-7.47,17.19,17.19,0,0,0-.87-8.95,39.13,39.13,0,0,0-3.8-11.21,41.45,41.45,0,0,0-5.67-8.21,76.93,76.93,0,0,0-16.46-14.13,116,116,0,0,0-25.16-12.49l-23.17-6.65a145.12,145.12,0,0,0-22.57-2.43,104.74,104.74,0,0,0-17.16.54A215.61,215.61,0,0,0,87.26,105,222.84,222.84,0,0,0,47.2,121.51a39.91,39.91,0,0,0-14,11c-1.57,1.95-7,8.7-7.91,17.44a43.07,43.07,0,0,0-.11,5.68,1.48,1.48,0,0,1,0,.16,23.56,23.56,0,0,0,2.9,9.19,38.2,38.2,0,0,0,9.74,10.69s8.69,5.32,16.23,8.85a89.49,89.49,0,0,0,16.29,5.89c13.28,3.33,30.82,3.59,31,5.48,0,.07,0,.33,0,1,0,.9.09,1.63.14,2.16.23,2.8.37,2.76.24,2.94-.6.85-2.63,0-9.35-1l-.71-.11c-.94-.12-2.13-.17-7.93-.55-9-.59-17.12-1.22-17.92-1.28-15.75-1.27-30.91-11.29-32.6-12.43a75.9,75.9,0,0,1-24-26.19A74,74,0,0,1,.81,134.47,124,124,0,0,1,4,96.58,125.84,125.84,0,0,1,37.28,37.63,132.11,132.11,0,0,1,97.05,4.47c24.26-6.11,43.81-3.7,54.09-2.32C168,4.4,200.53,8.51,228.36,34.21c19,17.59,28.1,38.05,32.49,51.66q1.56,7.56,3.1,15.13c.51,2.46,1,5.07,1.37,7.82C265.88,112.78,266.22,116.52,266.39,120Z"/><path class="cls-3" d="M145.88,19.39c-14.8.72-26.16,9.16-26.41,23.87s11.06,26.54,25.42,25.8,24.89-12.19,25.76-27.18S160.69,18.66,145.88,19.39Zm-3.47,45c-11,.14-16.25-7.79-17.3-20.2s6.43-21.45,21.72-21.72,21.6,11,17.22,23S153.4,64.23,142.41,64.38Z"/><path class="cls-3" d="M79.9,34.65a5.4,5.4,0,0,0-1-1c-6.31-5-22,4-30.5,11.45C36.12,55.92,26.36,74.65,31.3,79.93c4.75,5.08,22.75-2.28,34-12.88C75.18,57.73,84.81,41.1,79.9,34.65ZM61.81,64.45c-9.08,8.73-23.15,16.38-26.7,12.91s3.29-17,11.48-25.9c10.17-11.07,26.24-18.78,29.84-15S71.64,55,61.81,64.45Z"/><path class="cls-3" d="M244.77,69.76c-.55-1.06-1-1.85-1.33-2.33-6.45-10.33-19.24-19-25.07-15.87-6.08,3.24-5.21,19.61.8,31.08,6.4,12.22,20.42,22.28,26.5,18.86S250.73,81.23,244.77,69.76Zm-1.1,27.29c-4.67,2.57-15.39-6-20.61-15.5s-6.64-23.35-2-25.87S236.67,62,241.85,71.83C246.76,81.13,248.3,94.5,243.67,97.05Z"/><ellipse class="cls-3" cx="17.14" cy="131.74" rx="3.21" ry="7" transform="translate(-81.25 42.47) rotate(-40.37)"/><ellipse class="cls-3" cx="54.78" cy="103.72" rx="3.21" ry="7" transform="translate(-26.11 18.78) rotate(-15.76)"/><ellipse class="cls-3" cx="106.42" cy="89.14" rx="3.21" ry="7" transform="translate(-9.54 12.82) rotate(-6.6)"/><ellipse class="cls-3" cx="173.09" cy="89.59" rx="7" ry="3.21" transform="translate(23.76 214.83) rotate(-67.35)"/><ellipse class="cls-3" cx="221.31" cy="111.19" rx="7" ry="3.21" transform="translate(-16.61 180) rotate(-42.81)"/><ellipse class="cls-3" cx="246.73" cy="150.58" rx="7" ry="3.21" transform="translate(-35.47 88.02) rotate(-18.9)"/><ellipse class="cls-3" cx="225.27" cy="172.87" rx="2.02" ry="2.8" transform="translate(-39.48 70.22) rotate(-16.31)"/><ellipse class="cls-3" cx="211.2" cy="177.93" rx="2.02" ry="2.8" transform="translate(-25.25 35.25) rotate(-9.01)"/><ellipse class="cls-3" cx="195.26" cy="183.57" rx="2.02" ry="2.8" transform="translate(-43.7 62.23) rotate(-16.31)"/><ellipse class="cls-3" cx="91.57" cy="186.23" rx="3.49" ry="2.68" transform="translate(-113.17 220.11) rotate(-73.21)"/><ellipse class="cls-3" cx="75.71" cy="183.29" rx="3.49" ry="2.68" transform="translate(-121.64 202.84) rotate(-73.21)"/><ellipse class="cls-3" cx="59.39" cy="178.37" rx="3.49" ry="2.68" transform="translate(-128.53 183.71) rotate(-73.21)"/><ellipse class="cls-3" cx="42.51" cy="171.93" rx="2.45" ry="2.11" transform="translate(-128.12 124.47) rotate(-60.57)"/></svg>
