<svg id="Jellyfish1" xmlns="http://www.w3.org/2000/svg" width="152.49" height="130.48" viewBox="0 0 152.49 130.48"><defs><style>.cls-1{fill:#204c52;}.cls-1,.cls-2,.cls-3,.cls-4{stroke:#000;stroke-miterlimit:10;}.cls-2{fill:#5cc4f0;}.cls-3{fill:#de7bbc;}.cls-4{fill:#0595e1;}</style></defs><path class="cls-1" d="M136.53,94.72c-7.41,21.74-47.4,18.8-62.07,18.41S15.79,108.42,13.65,86.3s45-32.2,63-32.18S143.93,73,136.53,94.72Z"/><path class="cls-2" d="M77.44,129.83c-5-.38-.92-.06-.92-.06-8.08-.79-13.36-3.38-16.38-7.42-4.53-6-3-15.27-2.07-20.09,1-5.42,2.58-6.92,4.06-15.41a52.43,52.43,0,0,0,.93-9.39c0-2.65-.23-3.68-.77-9.43-.62-6.76-.92-10.15-.33-11,2-2.66,7.29-2.61,17.92-2.52.78,0,1.45,0,1.93,0a74.72,74.72,0,0,1,10.72,1.12c7.58,1.35,8.63,2.76,8.93,3.68s-.19,1.51-.75,4a38.2,38.2,0,0,0-.65,6.86C99.68,78.08,99.49,82,99.48,83c-.08,6.46-.11,9.69.25,12.29a93.1,93.1,0,0,1,1.1,11.59c0,.48,0,1,0,1.51C100.68,114.63,103.48,131.79,77.44,129.83Z"/><path class="cls-3" d="M127.8,93.9a1.42,1.42,0,0,1-.45,1,1,1,0,0,1-.86.23c-.56-.18-.68-1.22-.74-1.7-.29-2.36-.82-4.68-1.14-7-.11-.79,0-.18-.58-3.25-.64-3.75-.9-5.61-1.85-8-.15-.36-.27-.66-.35-.83-.29-.62-.75-1.58-1.34-2.77-1.39-2.8-2-3.88-1.71-4.15s.65.18,2.07.78c.9.38,1.64.62,2.12.77.22.52.51,1.24.83,2.11a21,21,0,0,1,1.59,5.55c.27,1.84.57,3.3,1.18,6.22C126.57,82.74,128.2,90.64,127.8,93.9Z"/><path class="cls-3" d="M110.67,99.74A1.93,1.93,0,0,1,110,101a1.55,1.55,0,0,1-1.29.25c-.85-.3-1-1.87-1-2.36a132.58,132.58,0,0,0-2.29-13.63c-.86-3.62-2.29-7.09-3.22-10.69,0-.18-.2-.77-.44-1.55s-.47-1.49-.64-1.92a10.88,10.88,0,0,1-.65-1.79l-.06-.39a9,9,0,0,1-.09-.94,19,19,0,0,1,.1-2.5,20.27,20.27,0,0,1,.38-2.27c.34-1.5.51-2.25.78-2.27s.57,1.19,1.69,4.2a39,39,0,0,1,1.31,3.68c.26.94.38,1.57.54,2.31h0c.72,2.79,1.26,4.88,1.38,5.32.36,1.35,1.18,4.51,3.12,12.29C110.51,94.34,110.92,98.5,110.67,99.74Z"/><path class="cls-3" d="M120.23,95.86a1.65,1.65,0,0,1-.6,1.19,1.38,1.38,0,0,1-1.16.29c-.76-.24-.93-1.53-1-2.13-.4-2.95-1.14-5.86-1.59-8.8-.09-.54-.1-.55-.21-1.09s-.58-2.9-.59-3a67.67,67.67,0,0,0-2.57-8.86,61.38,61.38,0,0,0-2.3-5.71c-1.61-3.45-2.94-5.39-2.47-5.81.21-.18.61,0,3.13,1.26l2.68,1.31c.3.65.7,1.56,1.13,2.65a24.15,24.15,0,0,1,2.19,6.93c.38,2.3.8,4.13,1.64,7.79C118.49,81.91,120.76,91.78,120.23,95.86Z"/><path class="cls-3" d="M51,97.64a2,2,0,0,0,.77,1.28,1.65,1.65,0,0,0,1.37.24c.91-.32,1-1.93,1.07-2.43a134,134,0,0,1,2.38-14c.89-3.72,2.4-7.29,3.38-11,.05-.18.21-.78.45-1.59s.5-1.53.68-2a9.66,9.66,0,0,0,.68-1.84s0-.2.07-.4c.23-1.56-.16-3.81-.25-5.88-.08-1.56.06-2-.16-2.12-.64-.21-2.46,3.75-2.65,4.16a27.26,27.26,0,0,0-1.39,3.79c-.27,1-.39,1.61-.56,2.37h0c-.75,2.88-1.32,5-1.44,5.47-.39,1.39-1.24,4.64-3.27,12.64C51.18,92.1,50.76,96.38,51,97.64Z"/><path class="cls-3" d="M34,93A1.75,1.75,0,0,0,34.65,94a1.12,1.12,0,0,0,1.19.12c.75-.34.71-1.39.73-2,.08-3,.28-5.09.44-8.23.06-1,.14-2,.37-3.84.29-2.22.81-6.63,1.75-9.1l.39-1c.57-1.37,1-2.36,1.43-3.23,1.81-3.82,2.3-4.88,2.1-5a.16.16,0,0,0-.15,0c-.9.36-1.83.65-2.72,1l-1.09.43-1.47.58c-.13.3-.31.75-.52,1.3s-.41,1.25-.56,1.71a37.22,37.22,0,0,0-1.64,6.39c-.2,1.47-.67,4.5-1,7.43C33.6,83.35,33.07,89.76,34,93Z"/><path class="cls-3" d="M43,94.52a2.44,2.44,0,0,0,.56,1.4c.5.45.78.52,1.21.37.86-.29.94-1.62,1-2.3.45-3.31,1-6.59,1.51-9.78.09-.58.13-.76.22-1.28s.58-3,.6-3.11a63.3,63.3,0,0,1,3.08-9.59,36.23,36.23,0,0,1,2.69-6,38.81,38.81,0,0,0,3.36-6.18s.16,0,0-.12c-.58-.36-2.3.3-3.19.57-.29.09-2.36.67-2.9.84-.4.93-.29.9-.81,2.08-.14.31-.13.23-.86,1.86a44.2,44.2,0,0,0-2.79,7.45c-.38,1.66-1.35,5.23-2.05,8.69C44,82.69,42.57,90.51,43,94.52Z"/><path class="cls-3" d="M23.4,90.43a1.49,1.49,0,0,0,.39.86c.32.26.51.29.76.19.5-.2.53-1,.58-1.48.21-2.27.46-3.88.73-6.27.1-.8.2-1.54.45-2.91A42.7,42.7,0,0,1,27.93,74c.12-.27.24-.58.31-.75.49-1.11.84-1.84,1.1-2.36A39.92,39.92,0,0,0,31.1,66.6s-.94.36-2,.83l-.87.42-.93.49c-.1.22-.24.55-.4,1s-.34.93-.46,1.27a33.65,33.65,0,0,0-1.41,4.76c-.2,1.11-.67,3.4-1,5.62S23,87.88,23.4,90.43Z"/><path class="cls-4" d="M152,70.25c-.16,1.45-.37,3-.64,4.53a82.78,82.78,0,0,1-1.92,8.44,73.32,73.32,0,0,1-10.35,18.34A39,39,0,0,1,128,110a47.73,47.73,0,0,1-8.61,3.15c-.75.23-1.72.38-4.12,1l-4.76,1.14c-2.58.6-2.25.47-3.82.85-4,1-5.59,1.63-6.06,1-.19-.25.07-.37.14-2,0-1,0-1.58.35-1.87.2-.16.39-.15.85-.18.66,0,1.3-.2,2-.24.85-.06,6.29-2,19.81-7.34,2.11-1.06,6.82-3.65,9.8-7.86a10.68,10.68,0,0,0,1.94-4.21,9.81,9.81,0,0,0-.39-5.1,22.42,22.42,0,0,0-2-6.44,24,24,0,0,0-3.13-4.74,43.91,43.91,0,0,0-9.2-8.25,66.43,66.43,0,0,0-14.17-7.42L93.42,57.35a81.37,81.37,0,0,0-12.83-1.67,60.19,60.19,0,0,0-9.77.1,122.23,122.23,0,0,0-20.64,3.73,127.46,127.46,0,0,0-23,8.9,22.77,22.77,0,0,0-8.11,6.06c-.92,1.1-4.11,4.87-4.72,9.83a23.5,23.5,0,0,0-.13,3.24v.09a13.42,13.42,0,0,0,1.54,5.27,21.81,21.81,0,0,0,5.41,6.21s4.89,3.13,9.13,5.24a50.8,50.8,0,0,0,9.21,3.55C47,110,57,110.33,57.06,111.4V112c0,.52,0,.93.06,1.23.1,1.6.17,1.58.1,1.68-.36.48-1.5,0-5.31-.7l-.4-.07C51,114,50.29,114,47,113.68c-5.09-.45-9.73-.91-10.18-1-9-.91-17.46-6.81-18.41-7.47A43.48,43.48,0,0,1,5,90,42.29,42.29,0,0,1,.58,75.22,70.68,70.68,0,0,1,2.86,53.68,71.58,71.58,0,0,1,22.55,20.53,75.15,75.15,0,0,1,57,2.38a78.5,78.5,0,0,1,30.83-.65c9.58,1.49,28,4.23,43.58,19.21a68.59,68.59,0,0,1,17.86,29.82c.53,2.88,1.05,5.76,1.58,8.65.26,1.41.49,2.9.68,4.47C151.79,66.14,151.94,68.27,152,70.25Z"/><path class="cls-3" d="M84.61,11.48c-8.44.23-15,4.89-15.33,13.27s6,15.24,14.16,15,14.32-6.63,15-15.16S93.05,11.25,84.61,11.48ZM82.08,37.06c-6.26-.06-9.16-4.64-9.6-11.72s3.93-12.14,12.63-12.1,12.17,6.51,9.53,13.3S88.34,37.11,82.08,37.06Z"/><path class="cls-3" d="M46.85,19.35a3.18,3.18,0,0,0-.54-.57c-3.53-2.91-12.58,2-17.51,6.14-7.14,6-12.93,16.55-10.18,19.62s13-1,19.52-6.91C43.88,32.44,49.57,23.09,46.85,19.35ZM36.19,36.1c-5.28,4.86-13.39,9-15.37,7s2.09-9.64,6.86-14.61c5.93-6.17,15.17-10.37,17.17-8.19S41.9,30.83,36.19,36.1Z"/><path class="cls-3" d="M140.3,41.39c-.3-.61-.56-1.07-.73-1.35-3.54-6-10.72-11-14.08-9.35s-3.21,11.11.07,17.71c3.49,7,11.35,12.94,14.86,11.07S143.55,48,140.3,41.39Zm-1,15.52c-2.69,1.41-8.69-3.59-11.55-9.08S124.3,34.45,127,33.07s8.78,3.79,11.61,9.46C141.29,47.88,142,55.51,139.34,56.91Z"/><ellipse class="cls-3" cx="9.92" cy="73.86" rx="1.83" ry="3.99" transform="translate(-44.39 22.82) rotate(-39.13)"/><ellipse class="cls-3" cx="31.7" cy="58.37" rx="1.83" ry="3.99" transform="translate(-13.62 9.81) rotate(-14.52)"/><ellipse class="cls-3" cx="61.28" cy="50.71" rx="1.83" ry="3.99" transform="translate(-4.47 5.94) rotate(-5.36)"/><ellipse class="cls-3" cx="99.24" cy="51.79" rx="3.99" ry="1.83" transform="translate(11.7 121.55) rotate(-66.11)"/><ellipse class="cls-3" cx="126.43" cy="64.69" rx="3.99" ry="1.83" transform="translate(-11.08 100.17) rotate(-41.56)"/><ellipse class="cls-3" cx="140.42" cy="87.43" rx="3.99" ry="1.83" transform="translate(-19.9 46.7) rotate(-17.65)"/><ellipse class="cls-3" cx="127.92" cy="99.85" rx="1.15" ry="1.59" transform="translate(-21.56 36.69) rotate(-15.07)"/><ellipse class="cls-3" cx="119.85" cy="102.56" rx="1.15" ry="1.59" transform="translate(-12.76 17.13) rotate(-7.76)"/><ellipse class="cls-3" cx="110.7" cy="105.58" rx="1.15" ry="1.59" transform="translate(-23.64 32.41) rotate(-15.07)"/><ellipse class="cls-3" cx="51.63" cy="105.81" rx="1.99" ry="1.53" transform="matrix(0.31, -0.95, 0.95, 0.31, -64.97, 122.15)"/><ellipse class="cls-3" cx="42.63" cy="103.94" rx="1.99" ry="1.53" transform="translate(-69.4 112.31) rotate(-71.97)"/><ellipse class="cls-3" cx="33.4" cy="100.94" rx="1.99" ry="1.53" transform="translate(-72.92 101.46) rotate(-71.97)"/><ellipse class="cls-3" cx="23.87" cy="97.07" rx="1.4" ry="1.2" transform="translate(-71.79 68.07) rotate(-59.33)"/></svg>
