<svg id="Layer_1" data-name="Layer 1" xmlns="http://www.w3.org/2000/svg" width="505" height="175" viewBox="0 0 505 175"><path d="M144.38,13a60.06,60.06,0,0,0-9.89,9.45A36.43,36.43,0,0,1,142,28.58,34.2,34.2,0,0,1,147,35.35a28.41,28.41,0,0,1,2.67,6.81,26.79,26.79,0,0,1,.81,6.23,27.22,27.22,0,0,1-2.71,12.49,26.36,26.36,0,0,1-7.15,8.82,29.91,29.91,0,0,1-10.18,5.24,41.17,41.17,0,0,1-11.9,1.72A59.85,59.85,0,0,1,105,75.12q-3.07,6.52-6.66,13a134,134,0,0,1-7.8,12.34,94.51,94.51,0,0,1-9.16,11,60.93,60.93,0,0,1-10.62,8.79A50.48,50.48,0,0,1,58.46,126a45.43,45.43,0,0,1-14.06,2.13A37.39,37.39,0,0,1,31,125.81,29.77,29.77,0,0,1,20.38,119a31.38,31.38,0,0,1-7-11,41.13,41.13,0,0,1-2.49-14.83,59.84,59.84,0,0,1,3.7-20.88A74.58,74.58,0,0,1,24.81,53.51,87.34,87.34,0,0,1,40.08,37.7a102.55,102.55,0,0,1,19-12.16A105.44,105.44,0,0,1,80.36,17.7a91.31,91.31,0,0,1,22.27-2.78,75.76,75.76,0,0,1,15.49,1.42,58.33,58.33,0,0,1,12,3.78,70.08,70.08,0,0,1,6.16-4.8,47.57,47.57,0,0,1,7-4ZM98.82,69q3.38-7,6.67-13.51t6.7-12.31q3.41-5.82,7.06-10.91a80.56,80.56,0,0,1,7.92-9.41,48.83,48.83,0,0,0-10.52-2.78,78.67,78.67,0,0,0-12.12-.88,71.63,71.63,0,0,0-17.36,2.12,89.9,89.9,0,0,0-16.36,5.82,98.58,98.58,0,0,0-15,8.76,111.71,111.71,0,0,0-24.32,23.4,94.53,94.53,0,0,0-8.42,13.07,70.2,70.2,0,0,0-5.35,13,43.83,43.83,0,0,0-1.86,12.2,26.76,26.76,0,0,0,2.05,10.51,26,26,0,0,0,5.67,8.46,26.34,26.34,0,0,0,8.65,5.64,29,29,0,0,0,11,2,37,37,0,0,0,16.7-3.67,47.79,47.79,0,0,0,13.7-10.43,95.33,95.33,0,0,0,11.93-16.3q5.64-9.53,11.5-21.24a64.33,64.33,0,0,1-14.13-7.69l1.17-2q3.51,1.76,7.14,3.33A77.11,77.11,0,0,0,98.82,69Zm44-24.83A21.06,21.06,0,0,0,140,33.08a23.05,23.05,0,0,0-7.88-7.69A139.08,139.08,0,0,0,119.36,45.5Q113.33,57,106.88,71c1.41.24,2.83.43,4.25.55s2.85.18,4.32.18a28,28,0,0,0,10.51-2,26.29,26.29,0,0,0,8.68-5.6,26.87,26.87,0,0,0,5.93-8.68A28.09,28.09,0,0,0,142.77,44.21Z"/><path d="M177.85,100.1a2.3,2.3,0,0,0,.58.07h.66a16,16,0,0,0,3.74-.4,10.79,10.79,0,0,0,3.11-1.28,13.45,13.45,0,0,0,2.75-2.31,21.51,21.51,0,0,0,2.56-3.48l2.64,2a22,22,0,0,1-7.25,7,16.66,16.66,0,0,1-7.91,2,11,11,0,0,1-2.71-.3,48.8,48.8,0,0,1-6.74,9,39.7,39.7,0,0,1-7.32,6,29.68,29.68,0,0,1-7.4,3.4,24.54,24.54,0,0,1-6.81,1.07,15.41,15.41,0,0,1-6-1.14,13.36,13.36,0,0,1-4.73-3.26,15,15,0,0,1-3.07-5,18.48,18.48,0,0,1-1.1-6.59,25.38,25.38,0,0,1,1.17-7.48,41.42,41.42,0,0,1,3.19-7.54A51,51,0,0,1,142,84.61a60.33,60.33,0,0,1,5.86-6.49,61.81,61.81,0,0,1,6.52-5.42,39.64,39.64,0,0,1,6.74-4l2.34,3.08a54.24,54.24,0,0,0-7.87,7,64,64,0,0,0-7.25,9.3A56.24,56.24,0,0,0,143,98.67a29.6,29.6,0,0,0-2.09,10.58q0,4.62,2,7.14c1.37,1.69,3.44,2.53,6.23,2.53a16.34,16.34,0,0,0,6.37-1.32,28.12,28.12,0,0,0,6.15-3.59,40.67,40.67,0,0,0,5.79-5.38,75.54,75.54,0,0,0,5.27-6.63A12.92,12.92,0,0,1,169,98.67a20.2,20.2,0,0,1-2.71-4.76,27.2,27.2,0,0,1-1.65-5.75,35.4,35.4,0,0,1-.55-6.3,22.56,22.56,0,0,1,.8-6.08,18,18,0,0,1,2.24-5,11.63,11.63,0,0,1,3.33-3.4,7.48,7.48,0,0,1,4.18-1.25,6.52,6.52,0,0,1,3.66,1.07A8.69,8.69,0,0,1,181,70.1a15.68,15.68,0,0,1,1.68,4.44,24.64,24.64,0,0,1,.59,5.49,34.51,34.51,0,0,1-.37,4.83,46.17,46.17,0,0,1-1.06,5.31,52.19,52.19,0,0,1-1.68,5.28A25.2,25.2,0,0,1,177.85,100.1Zm-10-18.24a32.19,32.19,0,0,0,.36,4.61,26.93,26.93,0,0,0,1.18,4.84,21.51,21.51,0,0,0,2,4.36,9.85,9.85,0,0,0,3.07,3.18,39.18,39.18,0,0,0,2.24-5.23q.92-2.69,1.53-5.17a36.44,36.44,0,0,0,.88-4.65,32.86,32.86,0,0,0,.26-3.77,20.1,20.1,0,0,0-.37-4,14.1,14.1,0,0,0-1-3.19,5.89,5.89,0,0,0-1.53-2.12,3.08,3.08,0,0,0-2-.77,4.28,4.28,0,0,0-2.71,1,8.2,8.2,0,0,0-2.12,2.64,14.84,14.84,0,0,0-1.36,3.81A21.33,21.33,0,0,0,167.89,81.86Z"/><path d="M237.47,94.75q-1.09,1.62-2.6,4.36T231.39,105q-2,3.19-4.36,6.48a41,41,0,0,1-5.2,5.94,27.2,27.2,0,0,1-6.12,4.32,15.24,15.24,0,0,1-7,1.68,12.13,12.13,0,0,1-3.88-.62,8.77,8.77,0,0,1-3.22-1.94,9.43,9.43,0,0,1-2.2-3.26,11.83,11.83,0,0,1-.8-4.58,22,22,0,0,1,1.42-7.51A65.75,65.75,0,0,1,203.34,98q1.91-3.66,3.81-6.7a55.55,55.55,0,0,0,2.78-4.87,7.63,7.63,0,0,0,.88-3.15,2.55,2.55,0,0,0-.62-1.68,9.74,9.74,0,0,0-1.54-1.43c-.61-.46-1.25-1-1.91-1.47a6.69,6.69,0,0,1-1.65-1.86q-1.83,2.93-3.73,5.93c-1.12,1.71-2.34,3.62-3.66,5.75s-2.59,4.21-3.81,6.26l-2.64-2,15.68-24.54,2.12,1.1c-.1.3-.26.76-.48,1.39a6.25,6.25,0,0,0-.33,2,5,5,0,0,0,.26,1.58,3.17,3.17,0,0,0,1.06,1.43q2.92,2.64,4.62,4.06A28.22,28.22,0,0,1,216.63,82a4.43,4.43,0,0,1,1,1.39,4.71,4.71,0,0,1,.19,1.43,9.32,9.32,0,0,1-.3,2.13,20.71,20.71,0,0,1-1,3q-.69,1.76-1.9,4.14t-3,5.53q-1.09,1.91-2.16,3.84c-.71,1.3-1.34,2.6-1.9,3.92a26.9,26.9,0,0,0-1.36,4,15.19,15.19,0,0,0-.51,3.8,5.22,5.22,0,0,0,.4,2.24,3.09,3.09,0,0,0,1.06,1.28,4,4,0,0,0,1.43.59,7.76,7.76,0,0,0,1.5.14,9.27,9.27,0,0,0,4.8-1.42,25.75,25.75,0,0,0,4.69-3.7,46.28,46.28,0,0,0,4.46-5.17q2.16-2.9,4.14-5.89t3.66-5.75q1.69-2.75,3-4.8Z"/><path d="M249.63,59.59q.72-1.25,2.6-4.32c1.24-2.05,2.71-4.32,4.39-6.81s3.52-5,5.49-7.51a54.24,54.24,0,0,1,5.83-6.4l3.29,2q-3.15,5.2-6.44,11t-6.52,12h23.88l-1.47,3.81H256.29Q253,70,250.1,76.51T245,89a100.41,100.41,0,0,0-3.44,11.1,39.11,39.11,0,0,0-1.25,9c0,3.18.74,5.46,2.2,6.85a7.58,7.58,0,0,0,5.42,2.09,11.71,11.71,0,0,0,5.86-1.72,33.78,33.78,0,0,0,5.9-4.36,56,56,0,0,0,5.49-5.79q2.6-3.13,4.61-5.93c1.35-1.85,2.46-3.48,3.34-4.87s1.41-2.26,1.61-2.6l2.71,2q-2.56,4.25-5.79,9a66.56,66.56,0,0,1-7.14,8.83,39,39,0,0,1-8.53,6.73A19.58,19.58,0,0,1,246,122a13.35,13.35,0,0,1-5.75-1.17,11.82,11.82,0,0,1-4.14-3.26,14.22,14.22,0,0,1-2.53-4.95,22,22,0,0,1-.84-6.22,38.76,38.76,0,0,1,.7-6.23,79.13,79.13,0,0,1,2.38-9.56q1.68-5.52,4.5-12.41a149.56,149.56,0,0,1,7.14-14.8H235.34l1.47-3.81Z"/><path d="M275.55,114.82a9.86,9.86,0,0,0,6.23,1.83,23.22,23.22,0,0,0,7.87-1.32,31.17,31.17,0,0,0,6.92-3.48,42.77,42.77,0,0,0,5.94-4.79,62.08,62.08,0,0,0,4.87-5.31c1.44-1.79,2.71-3.47,3.81-5.06s2-2.92,2.67-4H318q-1,1.76-2.82,4.5c-1.2,1.84-2.61,3.78-4.25,5.83a78.32,78.32,0,0,1-5.53,6.19,44.68,44.68,0,0,1-6.77,5.6,37.67,37.67,0,0,1-7.88,4.06,24.85,24.85,0,0,1-8.86,1.58,16.51,16.51,0,0,1-4-.48,14.55,14.55,0,0,1-3.77-1.5q-2.41,5.94-4.73,11.65T265,141q-2.09,5.11-3.84,9.45c-1.18,2.88-2.2,5.38-3.08,7.5s-1.56,3.81-2.05,5.06-.76,1.89-.81,1.94l-7.69-3.81q3.74-8.79,6.7-16.11t5.5-13.7q2.52-6.38,4.76-12t4.5-10.87a13.59,13.59,0,0,1-1.72-3.3,15,15,0,0,1-.7-2.64,3.52,3.52,0,0,1,.92-2.82,3.61,3.61,0,0,1,2.75-1.13,4,4,0,0,1,2.56,1q2.21-5.26,3.92-9.26t2.89-6.71c.88-2.09,1.66-3.93,2.35-5.49q6.36-15,11.82-26t10.08-18.61a112.33,112.33,0,0,1,8.42-12.37,54.88,54.88,0,0,1,6.92-7.37,19.63,19.63,0,0,1,5.6-3.55,13.12,13.12,0,0,1,4.47-.91,9.87,9.87,0,0,1,5.46,1.43,6,6,0,0,1,2.52,4.87,23.8,23.8,0,0,1-1.2,8.49A83.76,83.76,0,0,1,331.91,35a121.84,121.84,0,0,1-6,11.61q-3.44,5.85-7,10.76A195.68,195.68,0,0,1,306.5,72.63a138,138,0,0,1-9.71,9.82,60.16,60.16,0,0,1-7,5.53q-2.79,1.78-4.11,2.45Zm57.13-98.15a5.33,5.33,0,0,0-.55-2.16,2,2,0,0,0-1.94-.91,8.53,8.53,0,0,0-2.27.4,11.53,11.53,0,0,0-3.26,1.72,28.07,28.07,0,0,0-4.21,3.88,59.84,59.84,0,0,0-5.24,6.89q-2.9,4.32-6.29,10.69t-7.29,15.38q-2.56,5.71-5.93,13.88t-7.4,17.69a61.39,61.39,0,0,0,7.21-6q3.78-3.63,7.62-8t7.58-9.26q3.74-4.91,7.1-10t6.19-10q2.82-5,4.84-9.48a58.2,58.2,0,0,0,3-8.28A19,19,0,0,0,332.68,16.67Z"/><path d="M355.17,100.1a2.3,2.3,0,0,0,.58.07h.66a16.07,16.07,0,0,0,3.74-.4,10.79,10.79,0,0,0,3.11-1.28A13.45,13.45,0,0,0,366,96.18a21.51,21.51,0,0,0,2.56-3.48l2.64,2a22,22,0,0,1-7.25,7,16.66,16.66,0,0,1-7.91,2,11,11,0,0,1-2.71-.3,48.8,48.8,0,0,1-6.74,9,39.74,39.74,0,0,1-7.33,6,29.46,29.46,0,0,1-7.39,3.4,24.6,24.6,0,0,1-6.81,1.07,15.41,15.41,0,0,1-6-1.14,13.36,13.36,0,0,1-4.73-3.26,15,15,0,0,1-3.07-5,18.48,18.48,0,0,1-1.1-6.59,25.38,25.38,0,0,1,1.17-7.48,41.42,41.42,0,0,1,3.19-7.54,51,51,0,0,1,4.72-7.21,59.29,59.29,0,0,1,5.86-6.49,61.81,61.81,0,0,1,6.52-5.42,39.64,39.64,0,0,1,6.74-4l2.34,3.08a54.24,54.24,0,0,0-7.87,7,64.71,64.71,0,0,0-7.26,9.3,56.8,56.8,0,0,0-5.34,10.51,29.6,29.6,0,0,0-2.09,10.58q0,4.62,2.05,7.14c1.37,1.69,3.44,2.53,6.23,2.53a16.38,16.38,0,0,0,6.37-1.32A28.12,28.12,0,0,0,339,114a40.67,40.67,0,0,0,5.79-5.38A75.54,75.54,0,0,0,350,102a12.92,12.92,0,0,1-3.73-3.33,20.2,20.2,0,0,1-2.71-4.76A27.2,27.2,0,0,1,342,88.16a35.4,35.4,0,0,1-.55-6.3,22.56,22.56,0,0,1,.8-6.08,18,18,0,0,1,2.24-5,11.63,11.63,0,0,1,3.33-3.4A7.48,7.48,0,0,1,352,66.11a6.52,6.52,0,0,1,3.66,1.07,8.79,8.79,0,0,1,2.71,2.92A15.68,15.68,0,0,1,360,74.54a24.64,24.64,0,0,1,.59,5.49,34.51,34.51,0,0,1-.37,4.83,46.17,46.17,0,0,1-1.06,5.31,54.85,54.85,0,0,1-1.68,5.28A25.2,25.2,0,0,1,355.17,100.1Zm-10-18.24a32.19,32.19,0,0,0,.36,4.61,26.93,26.93,0,0,0,1.18,4.84,21,21,0,0,0,2.05,4.36,9.85,9.85,0,0,0,3.07,3.18,40.53,40.53,0,0,0,2.24-5.23q.92-2.69,1.53-5.17a36.44,36.44,0,0,0,.88-4.65,32.86,32.86,0,0,0,.26-3.77,20.1,20.1,0,0,0-.37-4,14.1,14.1,0,0,0-1-3.19,5.89,5.89,0,0,0-1.53-2.12,3.12,3.12,0,0,0-2-.77,4.26,4.26,0,0,0-2.71,1A8.2,8.2,0,0,0,347,73.55a14.84,14.84,0,0,0-1.36,3.81A20.69,20.69,0,0,0,345.21,81.86Z"/><path d="M421.6,13.45a7.09,7.09,0,0,1,4.28,1.25q1.72,1.25,1.72,4.54a19.9,19.9,0,0,1-.91,5.42,61.56,61.56,0,0,1-2.49,6.85q-1.57,3.69-3.7,7.76t-4.58,8.09q-2.44,4-5.12,7.84t-5.31,7q-5.28,6.52-9.12,11t-6.63,7.58c-1.86,2.07-3.42,3.76-4.69,5s-2.39,2.41-3.37,3.33S379.8,91,379,91.71s-1.68,1.6-2.56,2.53a23.73,23.73,0,0,0-.55,5.31c0,1.68,0,3.23,0,4.65q0,6.38,2.05,9.45a6.54,6.54,0,0,0,5.78,3.07,11,11,0,0,0,5-1.28,27.27,27.27,0,0,0,5-3.33,45.63,45.63,0,0,0,4.83-4.65q2.34-2.59,4.43-5.28T406.8,97l2.93-4.32,2.71,2c-.14.2-.62,1-1.42,2.31s-1.87,3-3.19,4.87-2.88,3.94-4.69,6.11a55,55,0,0,1-5.86,6,33.92,33.92,0,0,1-6.63,4.61,14.82,14.82,0,0,1-12.81.7,12.77,12.77,0,0,1-4.84-3.59,19,19,0,0,1-3.37-6.26,29,29,0,0,1-1.28-9.16,66.09,66.09,0,0,1,1.58-14,108.64,108.64,0,0,1,4.28-14.65,134.46,134.46,0,0,1,6.37-14.54q3.66-7.17,7.8-13.66a127.93,127.93,0,0,1,8.65-12A92.2,92.2,0,0,1,405.89,22a46.06,46.06,0,0,1,8.38-6.3A15.25,15.25,0,0,1,421.6,13.45ZM377.73,87.72q6.22-6.45,12-13.07t10.92-13.11Q405.78,55,410,48.94t7.25-11.54A75.65,75.65,0,0,0,422,27.51a22.23,22.23,0,0,0,1.69-7.69,3.42,3.42,0,0,0-.59-1.57,1.65,1.65,0,0,0-1.39-1q-2.26,0-6,3a62,62,0,0,0-8.1,8.17,142.5,142.5,0,0,0-9,12,154.9,154.9,0,0,0-8.75,14.72,157.53,157.53,0,0,0-7.32,16.19A94.9,94.9,0,0,0,377.73,87.72Z"/><path d="M428.92,71.31c-.63,1.27-1.52,3-2.67,5s-2.38,4.35-3.7,6.81-2.66,5.06-4,7.77-2.6,5.34-3.7,7.91a71.1,71.1,0,0,0-2.67,7.21,20.35,20.35,0,0,0-1,5.71,3.8,3.8,0,0,0,.87,2.9,3.69,3.69,0,0,0,2.49.77,10.15,10.15,0,0,0,5.86-2,31.79,31.79,0,0,0,5.68-5.17,65.59,65.59,0,0,0,5.53-7.28q2.71-4.11,5.42-8.28l2.64,2q-2.13,3.81-4.8,8.13a56.8,56.8,0,0,1-6,8A32.05,32.05,0,0,1,421.6,117a16.28,16.28,0,0,1-8.64,2.41,8.56,8.56,0,0,1-6.74-2.63,9.89,9.89,0,0,1-2.35-6.81,26.29,26.29,0,0,1,2.27-10.26,69.38,69.38,0,0,1,5.68-10.58,109.87,109.87,0,0,1,7.4-10.07c2.66-3.23,5.11-6.15,7.36-8.79Zm13.7-16.26a7.31,7.31,0,0,1-.73,3A11.08,11.08,0,0,1,440,60.91,10.45,10.45,0,0,1,437.49,63a5.48,5.48,0,0,1-2.78.81,2.19,2.19,0,0,1-1.91-.92,3.77,3.77,0,0,1-.65-2.23,10.85,10.85,0,0,1,.43-2.78,11.92,11.92,0,0,1,1.32-3A9.92,9.92,0,0,1,436,52.34a4.37,4.37,0,0,1,2.85-1,3.49,3.49,0,0,1,2.64,1.17A3.69,3.69,0,0,1,442.62,55.05Z"/><path d="M478.29,100.1a2.3,2.3,0,0,0,.58.07h.66a16.07,16.07,0,0,0,3.74-.4,10.79,10.79,0,0,0,3.11-1.28,13.45,13.45,0,0,0,2.75-2.31,21.51,21.51,0,0,0,2.56-3.48l2.64,2a22,22,0,0,1-7.25,7,16.66,16.66,0,0,1-7.91,2,11,11,0,0,1-2.71-.3,48.8,48.8,0,0,1-6.74,9,39.74,39.74,0,0,1-7.33,6,29.46,29.46,0,0,1-7.39,3.4,24.6,24.6,0,0,1-6.81,1.07,15.41,15.41,0,0,1-6-1.14,13.36,13.36,0,0,1-4.73-3.26,15,15,0,0,1-3.07-5,18.48,18.48,0,0,1-1.1-6.59,25.38,25.38,0,0,1,1.17-7.48,41.42,41.42,0,0,1,3.19-7.54,51,51,0,0,1,4.72-7.21,60.33,60.33,0,0,1,5.86-6.49,61.81,61.81,0,0,1,6.52-5.42,39.64,39.64,0,0,1,6.74-4l2.34,3.08a54.24,54.24,0,0,0-7.87,7,64.71,64.71,0,0,0-7.26,9.3,56.8,56.8,0,0,0-5.34,10.51,29.6,29.6,0,0,0-2.09,10.58q0,4.62,2.05,7.14c1.37,1.69,3.44,2.53,6.23,2.53A16.34,16.34,0,0,0,456,117.6,28.12,28.12,0,0,0,462.1,114a40.67,40.67,0,0,0,5.79-5.38,75.54,75.54,0,0,0,5.27-6.63,12.92,12.92,0,0,1-3.73-3.33,20.2,20.2,0,0,1-2.71-4.76,27.2,27.2,0,0,1-1.65-5.75,35.4,35.4,0,0,1-.55-6.3,22.56,22.56,0,0,1,.8-6.08,18,18,0,0,1,2.24-5,11.63,11.63,0,0,1,3.33-3.4,7.48,7.48,0,0,1,4.18-1.25,6.52,6.52,0,0,1,3.66,1.07,8.69,8.69,0,0,1,2.71,2.92,15.68,15.68,0,0,1,1.68,4.44,24.64,24.64,0,0,1,.59,5.49,34.51,34.51,0,0,1-.37,4.83,46.17,46.17,0,0,1-1.06,5.31,54.85,54.85,0,0,1-1.68,5.28A25.2,25.2,0,0,1,478.29,100.1Zm-10-18.24a32.19,32.19,0,0,0,.36,4.61,26.93,26.93,0,0,0,1.18,4.84,21,21,0,0,0,2.05,4.36A9.85,9.85,0,0,0,475,98.85a40.53,40.53,0,0,0,2.24-5.23q.91-2.69,1.53-5.17a36.44,36.44,0,0,0,.88-4.65A32.86,32.86,0,0,0,479.9,80a20.1,20.1,0,0,0-.37-4,14.1,14.1,0,0,0-1-3.19A5.89,5.89,0,0,0,477,70.69a3.1,3.1,0,0,0-2-.77,4.26,4.26,0,0,0-2.71,1,8.2,8.2,0,0,0-2.12,2.64,14.84,14.84,0,0,0-1.36,3.81A20.69,20.69,0,0,0,468.33,81.86Z"/></svg>
